
<svg width="12" height="12" viewBox="0 0 12 12" fill="none" xmlns="http://www.w3.org/2000/svg">
<path d="M0.725913 5.28051H9.28141C9.30672 5.28027 9.33136 5.27238 9.35211 5.25788C9.37285 5.24338 9.38873 5.22294 9.39765 5.19926C9.40657 5.17557 9.40812 5.14974 9.4021 5.12516C9.39608 5.10058 9.38277 5.07839 9.36391 5.06151L5.04541 1.26151C4.90965 1.1335 4.82888 0.957793 4.82013 0.771405C4.81138 0.585016 4.87533 0.40251 4.99851 0.26235C5.12168 0.122189 5.29446 0.0353217 5.48043 0.0200548C5.6664 0.00478787 5.85103 0.062314 5.99541 0.180509L11.5859 5.10001C11.7136 5.21262 11.8159 5.35111 11.8859 5.50628C11.956 5.66146 11.9922 5.82976 11.9922 6.00001C11.9922 6.17026 11.956 6.33856 11.8859 6.49373C11.8159 6.64891 11.7136 6.7874 11.5859 6.90001L5.99641 11.8185C5.85191 11.9352 5.6679 11.9916 5.48282 11.9758C5.29775 11.96 5.12593 11.8733 5.00328 11.7338C4.88063 11.5943 4.81664 11.4128 4.82468 11.2272C4.83272 11.0417 4.91216 10.8664 5.04641 10.738L9.36491 6.93801C9.38377 6.92113 9.39708 6.89894 9.4031 6.87436C9.40912 6.84977 9.40757 6.82395 9.39865 6.80026C9.38973 6.77658 9.37385 6.75614 9.35311 6.74164C9.33236 6.72714 9.30772 6.71925 9.28241 6.71901H0.725913C0.538308 6.71406 0.360047 6.63606 0.229104 6.50162C0.0981607 6.36718 0.0248852 6.18693 0.0248852 5.99926C0.0248852 5.81159 0.0981607 5.63133 0.229104 5.49689C0.360047 5.36245 0.538308 5.28445 0.725913 5.27951V5.28051Z" fill="#26262E"/>
</svg>
